<svg width="16" height="17" viewBox="0 0 16 17" fill="none" xmlns="http://www.w3.org/2000/svg">
<path d="M8.14321 14.5C7.79753 14.5 7.52099 14.4334 7.17531 14.3001C6.41481 13.9668 6 13.2337 6 12.434V4.56977C6 3.77002 6.48395 3.10356 7.24444 2.70368C8.00494 2.37045 8.9037 2.4371 9.52593 2.97027L14.5728 6.90237C15.0568 7.30225 15.3333 7.83541 15.3333 8.50187C15.3333 9.10169 15.0568 9.7015 14.5728 10.1014L9.52593 14.0335C9.11111 14.3667 8.62716 14.5 8.14321 14.5ZM7.79753 3.90331C7.65926 3.96995 7.38272 4.16989 7.38272 4.56977V12.5006C7.38272 12.9005 7.65926 13.1004 7.79753 13.1671C8.07407 13.3004 8.41975 13.2337 8.62716 13.1004L13.6741 9.16833C13.8815 9.03504 13.9506 8.8351 13.9506 8.63516C13.9506 8.43523 13.8815 8.23529 13.6741 8.102L8.62716 4.16989C8.35062 3.83666 8.00494 3.83666 7.79753 3.90331Z" fill="white"/>
<path d="M3.99998 12.5C3.59998 12.5 3.33331 12.2333 3.33331 11.8333V5.16667C3.33331 4.76667 3.59998 4.5 3.99998 4.5C4.39998 4.5 4.66665 4.76667 4.66665 5.16667V11.8333C4.66665 12.2333 4.39998 12.5 3.99998 12.5Z" fill="white"/>
<path d="M1.33335 11.1667C0.933354 11.1667 0.666687 10.9 0.666687 10.5V6.50004C0.666687 6.10004 0.933354 5.83337 1.33335 5.83337C1.73335 5.83337 2.00002 6.10004 2.00002 6.50004V10.5C2.00002 10.9 1.73335 11.1667 1.33335 11.1667Z" fill="white"/>
</svg>
