<svg width="10" height="10" viewBox="0 0 10 10" fill="none" xmlns="http://www.w3.org/2000/svg">
<path fill-rule="evenodd" clip-rule="evenodd" d="M5 1C2.79086 1 1 2.79086 1 5C1 7.20914 2.79086 9 5 9C7.20914 9 9 7.20914 9 5C9 2.79086 7.20914 1 5 1ZM0 5C0 2.23858 2.23858 0 5 0C7.76142 0 10 2.23858 10 5C10 7.76142 7.76142 10 5 10C2.23858 10 0 7.76142 0 5ZM6.37439 3.62996L4.9175 4.12791C4.49971 4.28098 4.23176 4.56975 4.1341 4.89498C4.13227 4.90108 4.13032 4.90714 4.12826 4.91317L3.62991 6.36858L5.0825 5.87209C5.50029 5.71902 5.76824 5.43025 5.8659 5.10502C5.86837 5.09678 5.87106 5.0886 5.87395 5.08051L6.12119 4.38886L6.37439 3.62996ZM7.24749 2.70162C7.45738 2.89225 7.53882 3.17482 7.48253 3.45601C7.47846 3.47635 7.47312 3.49643 7.46656 3.51611L7.06811 4.71039L7.06463 4.72045L6.81964 5.40581C6.61583 6.06819 6.09085 6.5697 5.41977 6.81351L5.41075 6.81669L3.5181 7.46359C3.50476 7.46815 3.49123 7.47215 3.47755 7.47556C3.2259 7.53842 2.95213 7.47969 2.75251 7.29838C2.54262 7.10775 2.46118 6.82518 2.51747 6.54399C2.5218 6.52236 2.52756 6.50103 2.5347 6.48016L3.17931 4.59762C3.38235 3.93355 3.90799 3.43072 4.58023 3.18649L4.58925 3.18331L6.4819 2.53641C6.49524 2.53185 6.50877 2.52785 6.52245 2.52444C6.7741 2.46158 7.04787 2.52031 7.24749 2.70162Z" fill="white" stroke="white" stroke-width="0.005" stroke-miterlimit="10" stroke-linecap="round" stroke-linejoin="round"/>
</svg>
