<svg width="14" height="16" viewBox="0 0 14 16" fill="none" xmlns="http://www.w3.org/2000/svg">
<path d="M9.288 7.6C9.288 8.088 8.928 8.488 8.472 8.488C8.024 8.488 7.656 8.088 7.656 7.6C7.656 7.112 8.016 6.712 8.472 6.712C8.928 6.712 9.288 7.112 9.288 7.6ZM5.552 6.712C5.096 6.712 4.736 7.112 4.736 7.6C4.736 8.088 5.104 8.488 5.552 8.488C6.008 8.488 6.368 8.088 6.368 7.6C6.376 7.112 6.008 6.712 5.552 6.712ZM14 1.648V16C11.9846 14.2189 12.6291 14.8085 10.288 12.632L10.712 14.112H1.64C0.736 14.112 0 13.376 0 12.464V1.648C0 0.736 0.736 0 1.64 0H12.36C13.264 0 14 0.736 14 1.648ZM11.72 9.232C11.72 6.656 10.568 4.568 10.568 4.568C9.416 3.704 8.32 3.728 8.32 3.728L8.208 3.856C9.568 4.272 10.2 4.872 10.2 4.872C8.29966 3.83047 6.06738 3.83028 4.224 4.64C3.928 4.776 3.752 4.872 3.752 4.872C3.752 4.872 4.416 4.24 5.856 3.824L5.776 3.728C5.776 3.728 4.68 3.704 3.528 4.568C3.528 4.568 2.376 6.656 2.376 9.232C2.376 9.232 3.048 10.392 4.816 10.448C4.816 10.448 5.112 10.088 5.352 9.784C4.336 9.48 3.952 8.84 3.952 8.84C4.06969 8.92237 4.26375 9.02916 4.28 9.04C5.63031 9.79619 7.54838 10.0439 9.272 9.32C9.552 9.216 9.864 9.064 10.192 8.848C10.192 8.848 9.792 9.504 8.744 9.8C8.984 10.104 9.272 10.448 9.272 10.448C11.04 10.392 11.72 9.232 11.72 9.232Z" fill="#5D60EF"/>
</svg>
