<svg width="10" height="10" viewBox="0 0 10 10" fill="none" xmlns="http://www.w3.org/2000/svg">
<path d="M2.73764 10C2.48782 10 2.238 9.9 1.98817 9.75C1.58846 9.45 1.33863 8.95 1.43856 8.45L1.73835 6.5L0.389305 5.1C0.0395522 4.75 -0.110342 4.2 0.0895168 3.7C0.239411 3.2 0.639128 2.9 1.13877 2.8L3.03743 2.5L3.88683 0.75C4.08669 0.3 4.53637 0 5.03602 0C5.53566 0 5.98534 0.3 6.23517 0.75L7.0346 2.5L8.88329 2.8C9.38294 2.85 9.78265 3.2 9.93255 3.7C10.0824 4.2 9.98251 4.7 9.63276 5.1L8.28372 6.5L8.5835 8.45C8.68343 8.95 8.48357 9.5 8.03389 9.75C7.63418 10.05 7.13453 10.05 6.68485 9.85L5.03602 8.9L3.38718 9.8C3.18732 9.95 2.98746 10 2.73764 10ZM5.03602 1C4.98605 1 4.83616 1 4.78619 1.2L3.83686 3.2C3.73693 3.35 3.58704 3.45 3.43715 3.45L1.28867 3.8C1.13877 3.8 1.08881 3.95 1.03884 4C1.03884 4.05 0.98888 4.2 1.13877 4.35L2.68768 5.9C2.78761 6 2.83757 6.15 2.83757 6.35L2.48782 8.55C2.43785 8.75 2.58775 8.85 2.63771 8.9C2.68768 8.95 2.78761 9 2.9375 8.9L4.83616 7.85C4.98605 7.75 5.18591 7.75 5.3358 7.85L7.23446 8.9C7.38435 8.95 7.48428 8.9 7.53425 8.9C7.58421 8.85 7.68414 8.75 7.68414 8.55L7.33439 6.35C7.28442 6.2 7.33439 6.05 7.48428 5.9L9.03319 4.35C9.08315 4.25 9.03319 4.05 9.03319 4C9.03319 3.95 8.93326 3.8 8.78336 3.8L6.63488 3.5C6.48499 3.5 6.33509 3.35 6.23517 3.2L5.28584 1.2C5.23587 1 5.08598 1 5.03602 1Z" fill="#676767"/>
</svg>
