<svg width="16" height="16" viewBox="0 0 16 16" fill="none" xmlns="http://www.w3.org/2000/svg">
<path d="M14.2857 0H1.71429C1.25963 0 0.823594 0.180612 0.502103 0.502103C0.180612 0.823594 0 1.25963 0 1.71429L0 14.2857C0 14.7404 0.180612 15.1764 0.502103 15.4979C0.823594 15.8194 1.25963 16 1.71429 16H6.61607V10.5604H4.36607V8H6.61607V6.04857C6.61607 3.82893 7.9375 2.60286 9.96143 2.60286C10.9307 2.60286 11.9443 2.77571 11.9443 2.77571V4.95429H10.8275C9.72714 4.95429 9.38393 5.63714 9.38393 6.3375V8H11.8404L11.4475 10.5604H9.38393V16H14.2857C14.7404 16 15.1764 15.8194 15.4979 15.4979C15.8194 15.1764 16 14.7404 16 14.2857V1.71429C16 1.25963 15.8194 0.823594 15.4979 0.502103C15.1764 0.180612 14.7404 0 14.2857 0Z" fill="#5D60EF"/>
</svg>
