<svg width="13" height="10" viewBox="0 0 13 10" fill="none" xmlns="http://www.w3.org/2000/svg">
<path fill-rule="evenodd" clip-rule="evenodd" d="M1.11111 1.80653C1.11111 1.49514 1.4482 1.11111 1.91149 1.11111H3.88889C4.22786 1.11111 4.58773 1.23803 4.80302 1.4453C4.80761 1.44971 4.81227 1.45405 4.81701 1.45831L5.66447 2.21977C5.76644 2.3114 5.89869 2.36208 6.03578 2.36208H9.19962C9.57392 2.36208 9.94886 2.61841 10.007 2.982C10.0554 3.28498 10.3402 3.49134 10.6432 3.44292C10.9462 3.3945 11.1526 3.10964 11.1041 2.80666C10.9363 1.7561 9.95526 1.25097 9.19962 1.25097H6.24871L5.56616 0.637689C5.10391 0.197286 4.45084 0 3.88889 0H1.91149C0.905846 0 0 0.812549 0 1.80653V8.33333C0 8.35714 0.00149738 8.3806 0.00440308 8.40361C-0.0583432 9.20708 0.577923 10 1.44662 10H9.10975C10.0602 10 10.9274 9.41089 11.2895 8.53059L12.1244 6.44409L12.1253 6.44171C12.4872 5.52518 11.7898 4.44444 10.7756 4.44444H3.11252C2.52078 4.44444 2.0125 4.67065 1.59865 5.01662C1.40212 5.16819 1.23993 5.35035 1.11111 5.55835V1.80653ZM2.30478 5.87457C2.55537 5.663 2.82086 5.55556 3.11252 5.55556H10.7756C10.8668 5.55556 10.9689 5.6062 11.0424 5.71638C11.1164 5.8272 11.1262 5.94592 11.0922 6.03291L11.0919 6.03368L10.2609 8.11025C10.0671 8.57888 9.60231 8.88889 9.10975 8.88889H1.44662C1.35545 8.88889 1.25338 8.83825 1.17982 8.72807C1.10584 8.61728 1.0961 8.4986 1.13007 8.41162L1.96242 6.33157L1.96336 6.32919C2.04037 6.13413 2.14801 5.99461 2.2825 5.89242C2.29008 5.88666 2.29751 5.88071 2.30478 5.87457Z" fill="#676767"/>
</svg>
