<svg width="16" height="16" viewBox="0 0 16 16" fill="none" xmlns="http://www.w3.org/2000/svg">
<path d="M8.00268 3.8978C5.73201 3.8978 3.90048 5.72933 3.90048 8C3.90048 10.2707 5.73201 12.1022 8.00268 12.1022C10.2733 12.1022 12.1049 10.2707 12.1049 8C12.1049 5.72933 10.2733 3.8978 8.00268 3.8978ZM8.00268 10.667C6.53531 10.667 5.33571 9.47094 5.33571 8C5.33571 6.52906 6.53174 5.33304 8.00268 5.33304C9.47361 5.33304 10.6696 6.52906 10.6696 8C10.6696 9.47094 9.47004 10.667 8.00268 10.667ZM13.2295 3.73C13.2295 4.26197 12.8011 4.68682 12.2727 4.68682C11.7407 4.68682 11.3159 4.2584 11.3159 3.73C11.3159 3.20161 11.7443 2.77318 12.2727 2.77318C12.8011 2.77318 13.2295 3.20161 13.2295 3.73ZM15.9464 4.7011C15.8858 3.41939 15.593 2.28406 14.654 1.34866C13.7186 0.413254 12.5833 0.120495 11.3016 0.0562312C9.98059 -0.0187437 6.0212 -0.0187437 4.70021 0.0562312C3.42207 0.116925 2.28673 0.409684 1.34776 1.34509C0.408792 2.28049 0.119603 3.41582 0.0553385 4.69753C-0.0196364 6.01852 -0.0196364 9.97791 0.0553385 11.2989C0.116033 12.5806 0.408792 13.7159 1.34776 14.6513C2.28673 15.5867 3.4185 15.8795 4.70021 15.9438C6.0212 16.0187 9.98059 16.0187 11.3016 15.9438C12.5833 15.8831 13.7186 15.5903 14.654 14.6513C15.5894 13.7159 15.8822 12.5806 15.9464 11.2989C16.0214 9.97791 16.0214 6.02209 15.9464 4.7011ZM14.2399 12.7163C13.9614 13.416 13.4223 13.9551 12.719 14.2372C11.6657 14.6549 9.16657 14.5585 8.00268 14.5585C6.83878 14.5585 4.33605 14.6513 3.2864 14.2372C2.58663 13.9587 2.04753 13.4196 1.76548 12.7163C1.34776 11.6631 1.44416 9.1639 1.44416 8C1.44416 6.8361 1.35133 4.33337 1.76548 3.28372C2.04396 2.58396 2.58306 2.04485 3.2864 1.7628C4.33962 1.34509 6.83878 1.44148 8.00268 1.44148C9.16657 1.44148 11.6693 1.34866 12.719 1.7628C13.4187 2.04128 13.9578 2.58039 14.2399 3.28372C14.6576 4.33694 14.5612 6.8361 14.5612 8C14.5612 9.1639 14.6576 11.6666 14.2399 12.7163Z" fill="#5D60EF"/>
</svg>
