<svg width="10" height="10" viewBox="0 0 10 10" fill="none" xmlns="http://www.w3.org/2000/svg">
<path d="M3.42149 0.036802L1.38843 0.387266C0.595041 0.537465 0 1.23839 0 2.08952V7.84715C0 8.69828 0.595041 9.3992 1.38843 9.5494L3.42149 9.94993C3.52066 10 3.61983 10 3.71901 10C4.1157 10 4.5124 9.8498 4.80992 9.59947C5.20661 9.24901 5.45455 8.79841 5.45455 8.24768V1.73906C5.45455 1.23839 5.20661 0.737731 4.80992 0.387266C4.46281 0.036802 3.91736 -0.0633307 3.42149 0.036802ZM4.46281 8.24768C4.46281 8.44794 4.36364 8.69828 4.21488 8.79841C4.06612 8.94861 3.81818 8.99867 3.61983 8.94861L1.58678 8.54808C1.23967 8.54808 0.991736 8.24768 0.991736 7.89721V2.08952C0.991736 1.73906 1.23967 1.43866 1.58678 1.33853L3.61983 0.988062C3.66942 0.988062 3.71901 0.988062 3.76859 0.988062C3.91736 0.988062 4.1157 1.03813 4.21488 1.13826C4.36364 1.28846 4.46281 1.48873 4.46281 1.73906V8.24768Z" fill="#676767"/>
<path d="M7.26524 0.909088H6.43067C6.1177 0.909088 5.90906 1.11244 5.90906 1.41746C5.90906 1.72249 6.1177 1.92583 6.43067 1.92583H7.26524C7.68253 1.92583 8.04766 2.2817 8.04766 2.68839V6.85705C8.04766 7.26375 7.68253 7.61961 7.26524 7.61961H6.43067C6.1177 7.61961 5.90906 7.82296 5.90906 8.12799C5.90906 8.43301 6.1177 8.63636 6.43067 8.63636H7.26524C8.2563 8.63636 9.09088 7.82296 9.09088 6.85705V2.68839C9.09088 1.72249 8.2563 0.909088 7.26524 0.909088Z" fill="#676767"/>
<path d="M3.18184 4.09091C2.90911 4.09091 2.72729 4.29293 2.72729 4.59596V5.40404C2.72729 5.70707 2.90911 5.90909 3.18184 5.90909C3.45457 5.90909 3.63639 5.70707 3.63639 5.40404V4.59596C3.63639 4.29293 3.45457 4.09091 3.18184 4.09091Z" fill="#676767"/>
</svg>
