<svg width="20" height="20" viewBox="0 0 20 20" fill="none" xmlns="http://www.w3.org/2000/svg">
<g opacity="0.8">
<path d="M14.5 7.08329H14.1667V5.91663C14.25 3.58329 12.3333 1.66663 10 1.66663C7.66667 1.66663 5.75 3.58329 5.75 5.91663V7.16663H5.5C3.83333 7.16663 2.5 8.49996 2.5 10.1666V15.4166C2.5 17.0833 3.83333 18.4166 5.5 18.4166H14.5833C16.25 18.4166 17.5833 17.0833 17.5833 15.4166V10.1666C17.5 8.41663 16.1667 7.08329 14.5 7.08329ZM7.41667 5.91663C7.41667 4.49996 8.58333 3.33329 10 3.33329C11.4167 3.33329 12.5833 4.49996 12.5833 5.91663V7.16663H7.41667V5.91663ZM16 15.3333C16 16.0833 15.25 16.6666 14.5 16.6666H5.5C4.75 16.6666 4.16667 16.0833 4.16667 15.3333V10.0833C4.16667 9.33329 4.75 8.74996 5.5 8.74996H6.66667H13.5H14.6667C15.4167 8.74996 16 9.33329 16 10.0833V15.3333Z" fill="#0F0F0F"/>
<path d="M9.99999 12.5833C9.49999 12.5833 9.16666 12.9166 9.16666 13.4166V14.7499C9.16666 15.2499 9.49999 15.5833 9.99999 15.5833C10.5 15.5833 10.8333 15.2499 10.8333 14.7499V13.4166C10.8333 12.9166 10.5 12.5833 9.99999 12.5833Z" fill="#0F0F0F"/>
</g>
</svg>
