<svg width="20" height="20" viewBox="0 0 20 20" fill="none" xmlns="http://www.w3.org/2000/svg">
<g opacity="0.8">
<path d="M9.99999 1.66663C5.41666 1.66663 1.66666 5.41663 1.66666 9.99996C1.66666 14.5833 5.41666 18.3333 9.99999 18.3333C14.5833 18.3333 18.3333 14.5833 18.3333 9.99996C18.3333 5.41663 14.5833 1.66663 9.99999 1.66663ZM9.99999 16.6666C6.33332 16.6666 3.33332 13.6666 3.33332 9.99996C3.33332 6.33329 6.33332 3.33329 9.99999 3.33329C13.6667 3.33329 16.6667 6.33329 16.6667 9.99996C16.6667 13.6666 13.6667 16.6666 9.99999 16.6666Z" fill="#0F142F"/>
<path d="M14.5833 12.8333C14 12.25 13.3333 11.8333 12.5833 11.5C13.1667 10.8333 13.5833 9.99996 13.5833 8.99996C13.5833 6.99996 12 5.41663 9.99999 5.41663C7.99999 5.41663 6.41666 6.99996 6.41666 8.99996C6.41666 9.99996 6.83332 10.8333 7.41666 11.5C6.66666 11.8333 5.99999 12.25 5.41666 12.8333C5.08332 13.1666 5.08332 13.6666 5.41666 14C5.58332 14.1666 5.83332 14.25 5.99999 14.25C6.24999 14.25 6.41666 14.1666 6.58332 14C7.49999 13.0833 8.66666 12.5833 9.99999 12.5833C11.25 12.5833 12.5 13.0833 13.4167 14C13.75 14.3333 14.25 14.3333 14.5833 14C14.9167 13.6666 14.9167 13.1666 14.5833 12.8333ZM8.08332 8.99996C8.08332 7.91663 8.91666 7.08329 9.99999 7.08329C11.0833 7.08329 11.9167 7.91663 11.9167 8.99996C11.9167 10.0833 11.0833 10.9166 9.99999 10.9166C8.91666 10.9166 8.08332 10.0833 8.08332 8.99996Z" fill="#0F142F"/>
</g>
</svg>
