<svg width="10" height="10" viewBox="0 0 10 10" fill="none" xmlns="http://www.w3.org/2000/svg">
<path fill-rule="evenodd" clip-rule="evenodd" d="M3.64289 0.231336C4.18926 -0.077112 4.85619 -0.077112 5.40257 0.231336C5.40666 0.23365 5.41073 0.236028 5.41475 0.23847L8.22733 1.94408C8.78234 2.26052 9.09091 2.83227 9.09091 3.45266V6.59353C9.09091 7.1934 8.7978 7.78103 8.26526 8.06048L5.46021 9.76153C5.45618 9.76397 5.45212 9.76635 5.44802 9.76866C4.90165 10.0771 4.23472 10.0771 3.68834 9.76866C3.68424 9.76635 3.68018 9.76397 3.67616 9.76153L0.863562 8.05591C0.308563 7.73947 0 7.16772 0 6.54734V3.45266C0 2.83284 0.308 2.26157 0.862043 1.94495L3.6279 0.24018C3.63284 0.237136 3.63784 0.234187 3.64289 0.231336ZM4.0912 1.03506L1.32664 2.73903C1.3217 2.74208 1.31671 2.74503 1.31166 2.74788C1.05263 2.89411 0.909091 3.1517 0.909091 3.45266V6.54734C0.909091 6.8483 1.05263 7.10589 1.31166 7.25212C1.31575 7.25444 1.31982 7.25681 1.32384 7.25926L4.13538 8.96423C4.40431 9.11354 4.73206 9.11354 5.00099 8.96423L7.81252 7.25926C7.8222 7.25339 7.83209 7.24788 7.84218 7.24276C8.02646 7.14913 8.18182 6.91128 8.18182 6.59353V3.45266C8.18182 3.1517 8.03828 2.89411 7.77925 2.74788C7.77515 2.74556 7.77109 2.74319 7.76707 2.74075L4.95554 1.03578C4.68703 0.886696 4.3599 0.886459 4.0912 1.03506ZM4.54545 4.05312C4.01827 4.05312 3.59091 4.48739 3.59091 5.02309C3.59091 5.5588 4.01827 5.99307 4.54545 5.99307C5.07263 5.99307 5.5 5.5588 5.5 5.02309C5.5 4.48739 5.07263 4.05312 4.54545 4.05312ZM2.68182 5.02309C2.68182 3.9772 3.51619 3.12933 4.54545 3.12933C5.57471 3.12933 6.40909 3.9772 6.40909 5.02309C6.40909 6.06899 5.57471 6.91686 4.54545 6.91686C3.51619 6.91686 2.68182 6.06899 2.68182 5.02309Z" fill="#676767"/>
</svg>
