<svg width="10" height="10" viewBox="0 0 10 10" fill="none" xmlns="http://www.w3.org/2000/svg">
<path fill-rule="evenodd" clip-rule="evenodd" d="M5 1C2.79086 1 1 2.79086 1 5C1 7.20914 2.79086 9 5 9C7.20914 9 9 7.20914 9 5C9 2.79086 7.20914 1 5 1ZM0 5C0 2.23858 2.23858 0 5 0C7.76142 0 10 2.23858 10 5C10 7.76142 7.76142 10 5 10C2.23858 10 0 7.76142 0 5ZM5 2.9C4.42614 2.9 4 3.32614 4 3.9C4 4.17614 3.77614 4.4 3.5 4.4C3.22386 4.4 3 4.17614 3 3.9C3 2.77386 3.87386 1.9 5 1.9C6.12614 1.9 7 2.77386 7 3.9C7 4.85274 6.37454 5.6249 5.5 5.84011V5.85C5.5 6.12614 5.27614 6.35 5 6.35C4.72386 6.35 4.5 6.12614 4.5 5.85V5.4C4.5 5.12386 4.72386 4.9 5 4.9C5.57386 4.9 6 4.47386 6 3.9C6 3.32614 5.57386 2.9 5 2.9ZM5 6.65C5.27614 6.65 5.5 6.87386 5.5 7.15V7.6C5.5 7.87614 5.27614 8.1 5 8.1C4.72386 8.1 4.5 7.87614 4.5 7.6V7.15C4.5 6.87386 4.72386 6.65 5 6.65Z" fill="#676767"/>
</svg>
