<svg width="16" height="16" viewBox="0 0 16 16" fill="none" xmlns="http://www.w3.org/2000/svg">
<path d="M14.2875 0H1.71607C0.769642 0 0.00178528 0.767857 0.00178528 1.71429V14.2857C0.00178528 15.2321 0.769642 16 1.71607 16H14.2875C15.2339 16 16.0018 15.2321 16.0018 14.2857V1.71429C16.0018 0.767857 15.2339 0 14.2875 0ZM12.5411 5.67143C12.5482 5.77143 12.5482 5.875 12.5482 5.975C12.5482 9.07143 10.1911 12.6393 5.88393 12.6393C4.55536 12.6393 3.32321 12.2536 2.2875 11.5893C2.47679 11.6107 2.65893 11.6179 2.85179 11.6179C3.94821 11.6179 4.95536 11.2464 5.75893 10.6179C4.73036 10.5964 3.86607 9.92143 3.56964 8.99286C3.93036 9.04643 4.25536 9.04643 4.62679 8.95C3.55536 8.73214 2.75179 7.78929 2.75179 6.65V6.62143C3.0625 6.79643 3.42679 6.90357 3.80893 6.91786C3.48765 6.70415 3.22428 6.41424 3.04231 6.07398C2.86034 5.73373 2.76544 5.35372 2.76607 4.96786C2.76607 4.53214 2.88036 4.13214 3.08393 3.78571C4.2375 5.20714 5.96964 6.13572 7.9125 6.23571C7.58036 4.64643 8.76964 3.35714 10.1982 3.35714C10.8732 3.35714 11.4804 3.63929 11.9089 4.09643C12.4375 3.99643 12.9446 3.8 13.3946 3.53214C13.2196 4.075 12.8518 4.53214 12.3661 4.82143C12.8375 4.77143 13.2946 4.63929 13.7161 4.45714C13.3982 4.925 12.9982 5.33929 12.5411 5.67143Z" fill="#5D60EF"/>
</svg>
