<svg width="22" height="19" viewBox="0 0 22 19" fill="none" xmlns="http://www.w3.org/2000/svg">
<path d="M17.2217 3.875C17.0226 3.875 16.8235 3.875 16.6244 3.875C15.5294 1.82955 13.3394 0.5 10.9502 0.5C8.66063 0.5 6.57014 1.82955 5.37557 3.875C5.17647 3.875 4.97738 3.875 4.77828 3.875C2.19005 3.875 0 6.125 0 8.88636C0 11.6477 2.19005 13.7955 4.87783 13.7955H7.46606C8.06335 13.7955 8.46154 13.3864 8.46154 12.7727C8.46154 12.1591 8.06335 11.75 7.46606 11.75H4.87783C3.28507 11.75 1.99095 10.4205 1.99095 8.88636C1.99095 7.35227 3.28507 5.92045 4.87783 5.92045C5.17647 5.92045 5.47511 5.92045 5.67421 6.02273C6.17195 6.22727 6.66968 5.92045 6.86878 5.40909C7.56561 3.67045 9.15837 2.54545 11.0498 2.54545C12.9412 2.54545 14.5339 3.67045 15.2308 5.40909C15.4299 5.92045 15.9276 6.125 16.4253 6.02273C16.724 5.92045 16.9231 5.92045 17.2217 5.92045C18.8145 5.92045 20.1086 7.25 20.1086 8.88636C20.1086 10.5227 18.8145 11.75 17.2217 11.75H12.0452V8.68182L13.0407 9.70455C13.2398 9.90909 13.5385 10.0114 13.7376 10.0114C13.9367 10.0114 14.2353 9.90909 14.4344 9.70455C14.8326 9.29545 14.8326 8.68182 14.4344 8.27273L11.6471 5.40909C11.5475 5.30682 11.448 5.20455 11.3484 5.20455C11.1493 5.10227 10.8507 5.10227 10.552 5.20455C10.4525 5.30682 10.3529 5.30682 10.2534 5.40909L7.56561 8.27273C7.16742 8.68182 7.16742 9.39773 7.56561 9.70455C7.9638 10.0114 8.56109 10.1136 8.95928 9.70455L9.95475 8.68182V17.4773C9.95475 18.0909 10.3529 18.5 10.9502 18.5C11.5475 18.5 11.9457 18.0909 11.9457 17.4773V13.7955H17.1222C19.81 13.7955 22 11.5455 22 8.78409C22 6.02273 19.9095 3.875 17.2217 3.875Z" fill="white"/>
</svg>
