<svg width="16" height="16" viewBox="0 0 16 16" fill="none" xmlns="http://www.w3.org/2000/svg">
<path d="M6.67232 6.075L10.0723 8.00714L6.67232 9.93929V6.075ZM16.0009 1.71429V14.2857C16.0009 15.2321 15.233 16 14.2866 16H1.71518C0.76875 16 0.000892639 15.2321 0.000892639 14.2857V1.71429C0.000892639 0.767857 0.76875 0 1.71518 0H14.2866C15.233 0 16.0009 0.767857 16.0009 1.71429ZM14.5009 8.01071C14.5009 8.01071 14.5009 5.88214 14.2295 4.86071C14.0795 4.29643 13.6402 3.85357 13.0795 3.70357C12.0688 3.42857 8.00089 3.42857 8.00089 3.42857C8.00089 3.42857 3.93304 3.42857 2.92232 3.70357C2.36161 3.85357 1.92232 4.29643 1.77232 4.86071C1.50089 5.87857 1.50089 8.01071 1.50089 8.01071C1.50089 8.01071 1.50089 10.1393 1.77232 11.1607C1.92232 11.725 2.36161 12.15 2.92232 12.3C3.93304 12.5714 8.00089 12.5714 8.00089 12.5714C8.00089 12.5714 12.0688 12.5714 13.0795 12.2964C13.6402 12.1464 14.0795 11.7214 14.2295 11.1571C14.5009 10.1393 14.5009 8.01071 14.5009 8.01071Z" fill="#5D60EF"/>
</svg>
